<svg width="44" height="40" viewBox="0 0 44 40" fill="none" xmlns="http://www.w3.org/2000/svg">
<path d="M17.6068 40V20.81H9.42857C9.42857 17.7362 10.0068 15.161 11.1633 13.0841C12.3198 10.9242 14.4677 9.30426 17.6068 8.2243V0C15.0459 0.332296 12.6503 1.1215 10.4199 2.3676C8.27206 3.53063 6.41338 5.02596 4.84383 6.85358C3.27428 8.68121 2.03516 10.7996 1.12647 13.2087C0.300393 15.6179 -0.0713431 18.1931 0.0112647 20.9346V40H17.6068ZM44 40V20.81H35.8218C35.8218 17.7362 36.4001 15.161 37.5566 13.0841C38.7131 10.9242 40.8609 9.30426 44 8.2243V0C41.4392 0.332296 39.0435 1.1215 36.8131 2.3676C34.6653 3.53063 32.8066 5.02596 31.2371 6.85358C29.6675 8.68121 28.4284 10.7996 27.5197 13.2087C26.6936 15.6179 26.3219 18.1931 26.4045 20.9346V40H44Z" fill="white"/>
</svg>
