<svg width="219" height="213" viewBox="0 0 219 213" fill="none" xmlns="http://www.w3.org/2000/svg">
<path d="M109.494 213C117.682 212.993 125.844 212.095 133.827 210.323C132.884 207.123 132.629 203.769 133.078 200.47C133.527 197.17 134.67 193.996 136.437 191.146C138.204 188.296 140.556 185.83 143.346 183.903C146.137 181.977 149.305 180.63 152.655 179.948C150.633 175.94 149.79 171.466 150.22 167.021C150.65 162.576 152.335 158.333 155.09 154.761C157.844 151.19 161.56 148.429 165.828 146.784C170.095 145.138 174.747 144.673 179.269 145.439C179.315 145.151 179.345 144.87 179.406 144.581C180.191 140.78 181.904 137.217 184.401 134.194C186.897 131.171 190.104 128.776 193.752 127.211C197.399 125.646 201.38 124.956 205.358 125.2C209.337 125.444 213.197 126.615 216.613 128.614C221.313 107.08 219.037 84.6599 210.097 64.4367C201.158 44.2134 185.996 27.1811 166.695 15.6831C147.395 4.18498 124.906 -1.21391 102.322 0.229146C79.7373 1.67221 58.1676 9.88632 40.58 23.7414C22.9924 37.5965 10.2511 56.4117 4.10911 77.5986C-2.03294 98.7855 -1.27392 121.303 6.2817 142.053C13.8373 162.803 27.8183 180.766 46.3011 193.471C64.784 206.176 86.8605 212.999 109.494 213V213Z" fill="#256E30"/>
</svg>
