<svg width="75" height="73" viewBox="0 0 75 73" fill="none" xmlns="http://www.w3.org/2000/svg">
<path d="M37.5022 0C34.698 0.00238162 31.9028 0.310153 29.1689 0.917569C29.4919 2.01405 29.5793 3.16357 29.4255 4.29438C29.2717 5.42519 28.88 6.51299 28.2749 7.48987C27.6699 8.46674 26.8644 9.31172 25.9088 9.97204C24.9532 10.6324 23.868 11.0938 22.721 11.3277C23.4133 12.7014 23.7019 14.2347 23.5547 15.7581C23.4076 17.2815 22.8304 18.7357 21.8871 19.9597C20.9438 21.1837 19.6711 22.13 18.2097 22.6939C16.7483 23.2577 15.1551 23.4172 13.6064 23.1547C13.5907 23.2535 13.5803 23.3499 13.5595 23.4487C13.2907 24.7516 12.7041 25.9725 11.8491 27.0085C10.9941 28.0445 9.89581 28.8654 8.64672 29.4018C7.39763 29.9383 6.03436 30.1746 4.67179 30.091C3.30921 30.0073 1.98725 29.6061 0.817313 28.9212C-0.792104 36.3011 -0.0125045 43.9851 3.04886 50.9161C6.11022 57.847 11.3029 63.6844 17.9125 67.6251C24.5222 71.5657 32.224 73.416 39.9583 72.9215C47.6927 72.4269 55.0796 69.6117 61.1027 64.8633C67.1259 60.1148 71.4893 53.6664 73.5928 46.4052C75.6962 39.1439 75.4363 31.4267 72.8487 24.3151C70.2612 17.2036 65.4732 11.0472 59.1434 6.69292C52.8137 2.33864 45.2532 0.00044015 37.5022 0V0Z" fill="#D7D81B"/>
</svg>
