<?xml version="1.0" encoding="utf-8"?>
<!-- Generator: Adobe Illustrator 26.0.2, SVG Export Plug-In . SVG Version: 6.00 Build 0)  -->
<svg version="1.1" id="Layer_1" xmlns="http://www.w3.org/2000/svg" xmlns:xlink="http://www.w3.org/1999/xlink" x="0px" y="0px"
	 viewBox="0 0 350 350" style="enable-background:new 0 0 350 350;" xml:space="preserve">
<style type="text/css">
	.st0{fill:#EB6131;}
</style>
<path class="st0" d="M183.45,45.67c-7.16,5.67-15.46,8.88-23.91,9.86c3.72,17.08-2.16,35.56-16.78,47.14
	c-16.91,13.4-40.13,13.33-56.84,1.37c-2.02,2.4-4.31,4.64-6.87,6.67c-17.07,13.52-40.56,13.32-57.3,1.02
	C13.94,130.94,9.6,151.94,9.6,173.96c0,91.35,74.05,165.4,165.4,165.4c91.36,0,165.41-74.06,165.41-165.41
	c0-82.41-60.27-150.72-139.13-163.3C200.71,23.88,194.64,36.8,183.45,45.67z"/>
</svg>
